<svg width="145" height="39" viewBox="0 0 145 39" fill="none" xmlns="http://www.w3.org/2000/svg">
<path d="M8.42075 18.144C7.06075 18.144 5.90075 17.92 4.94075 17.472C3.98075 17.008 3.19675 16.384 2.58875 15.6C1.99675 14.8 1.55675 13.896 1.26875 12.888C0.99675 11.864 0.86075 10.792 0.86075 9.672V0.959999H4.79675V9.672C4.79675 10.312 4.86075 10.936 4.98875 11.544C5.11675 12.136 5.32475 12.664 5.61275 13.128C5.90075 13.592 6.26875 13.96 6.71675 14.232C7.18075 14.504 7.74875 14.64 8.42075 14.64C9.10875 14.64 9.68475 14.504 10.1488 14.232C10.6128 13.944 10.9808 13.568 11.2528 13.104C11.5248 12.624 11.7248 12.088 11.8528 11.496C11.9808 10.904 12.0448 10.296 12.0448 9.672V0.959999H15.9808V9.672C15.9808 10.856 15.8288 11.96 15.5248 12.984C15.2368 14.008 14.7888 14.912 14.1808 15.696C13.5728 16.464 12.7888 17.064 11.8288 17.496C10.8848 17.928 9.74875 18.144 8.42075 18.144ZM22.9664 8.256V18H19.0304V0.959999H22.1504L30.0464 10.992V0.959999H33.9824V18H30.7664L22.9664 8.256ZM47.4654 5.952C47.4174 5.872 47.2494 5.752 46.9614 5.592C46.6734 5.416 46.3134 5.232 45.8814 5.04C45.4494 4.848 44.9774 4.68 44.4654 4.536C43.9534 4.392 43.4414 4.32 42.9294 4.32C42.2574 4.32 41.7374 4.44 41.3694 4.68C41.0014 4.904 40.8174 5.256 40.8174 5.736C40.8174 6.12 40.9534 6.424 41.2254 6.648C41.5134 6.872 41.9214 7.072 42.4494 7.248C42.9774 7.408 43.6254 7.6 44.3934 7.824C45.4814 8.112 46.4254 8.464 47.2254 8.88C48.0254 9.28 48.6334 9.8 49.0494 10.44C49.4814 11.08 49.6974 11.928 49.6974 12.984C49.6974 13.944 49.5214 14.76 49.1694 15.432C48.8174 16.088 48.3374 16.624 47.7294 17.04C47.1374 17.44 46.4574 17.736 45.6894 17.928C44.9214 18.104 44.1294 18.192 43.3134 18.192C42.4814 18.192 41.6254 18.112 40.7454 17.952C39.8814 17.776 39.0494 17.536 38.2494 17.232C37.4494 16.912 36.7134 16.528 36.0414 16.08L37.7694 12.648C37.8334 12.728 38.0414 12.88 38.3934 13.104C38.7454 13.312 39.1774 13.536 39.6894 13.776C40.2174 14 40.8014 14.2 41.4414 14.376C42.0814 14.552 42.7294 14.64 43.3854 14.64C44.0894 14.64 44.6094 14.528 44.9454 14.304C45.2974 14.08 45.4734 13.768 45.4734 13.368C45.4734 12.936 45.2894 12.6 44.9214 12.36C44.5694 12.12 44.0814 11.904 43.4574 11.712C42.8494 11.52 42.1454 11.304 41.3454 11.064C40.3054 10.744 39.4414 10.384 38.7534 9.984C38.0814 9.584 37.5774 9.096 37.2414 8.52C36.9214 7.944 36.7614 7.224 36.7614 6.36C36.7614 5.16 37.0414 4.152 37.6014 3.336C38.1774 2.504 38.9454 1.88 39.9054 1.464C40.8654 1.032 41.9134 0.816 43.0494 0.816C43.8494 0.816 44.6174 0.911999 45.3534 1.104C46.1054 1.296 46.8014 1.536 47.4414 1.824C48.0974 2.112 48.6814 2.4 49.1934 2.688L47.4654 5.952ZM51.023 9.336C51.023 8.296 51.215 7.28 51.599 6.288C51.983 5.28 52.543 4.368 53.279 3.552C54.015 2.736 54.911 2.088 55.967 1.608C57.023 1.112 58.223 0.863999 59.567 0.863999C61.167 0.863999 62.551 1.208 63.719 1.896C64.903 2.584 65.783 3.48 66.359 4.584L63.335 6.696C63.079 6.088 62.735 5.616 62.303 5.28C61.887 4.944 61.423 4.712 60.911 4.584C60.415 4.44 59.935 4.368 59.471 4.368C58.719 4.368 58.063 4.52 57.503 4.824C56.943 5.112 56.479 5.504 56.111 6C55.743 6.496 55.471 7.048 55.295 7.656C55.119 8.264 55.031 8.872 55.031 9.48C55.031 10.152 55.135 10.8 55.343 11.424C55.551 12.048 55.847 12.6 56.231 13.08C56.631 13.56 57.111 13.944 57.671 14.232C58.231 14.504 58.847 14.64 59.519 14.64C59.999 14.64 60.487 14.56 60.983 14.4C61.479 14.24 61.935 13.992 62.351 13.656C62.783 13.304 63.111 12.848 63.335 12.288L66.551 14.184C66.215 15.016 65.663 15.728 64.895 16.32C64.127 16.912 63.255 17.368 62.279 17.688C61.319 17.992 60.367 18.144 59.423 18.144C58.191 18.144 57.055 17.896 56.015 17.4C54.991 16.888 54.103 16.216 53.351 15.384C52.615 14.536 52.039 13.592 51.623 12.552C51.223 11.496 51.023 10.424 51.023 9.336ZM72.5686 0.959999H76.8166L82.6726 18H78.6406L77.3206 14.184H72.0166L70.7206 18H66.6886L72.5686 0.959999ZM76.6726 11.472L74.6806 4.92L72.6406 11.472H76.6726ZM95.7644 4.416H90.5804V18H86.6444V4.416H81.4364V0.959999H95.7644V4.416ZM112.351 0.959999V18H108.415V11.016H101.623V18H97.6867V0.959999H101.623V7.56H108.415V0.959999H112.351ZM127.592 14.544V18H115.616V0.959999H127.376V4.416H119.552V7.728H126.272V10.92H119.552V14.544H127.592ZM129.984 18V0.959999H136.344C138.216 0.959999 139.776 1.344 141.024 2.112C142.288 2.864 143.24 3.888 143.88 5.184C144.52 6.464 144.84 7.888 144.84 9.456C144.84 11.184 144.488 12.688 143.784 13.968C143.08 15.248 142.088 16.24 140.808 16.944C139.544 17.648 138.056 18 136.344 18H129.984ZM140.832 9.456C140.832 8.464 140.656 7.592 140.304 6.84C139.952 6.072 139.44 5.48 138.768 5.064C138.096 4.632 137.288 4.416 136.344 4.416H133.92V14.544H136.344C137.304 14.544 138.112 14.328 138.768 13.896C139.44 13.448 139.952 12.84 140.304 12.072C140.656 11.288 140.832 10.416 140.832 9.456Z" fill="#F3F4F6"/>
<path d="M1.08281 38V23.8H10.4628V25.4H2.88281V30.14H9.26281V31.64H2.88281V38H1.08281ZM14.343 38V23.8H16.143V38H14.343ZM31.3783 25.4H26.4783V38H24.6783V25.4H19.7783V23.8H31.3783V25.4ZM36.8234 27.12V38H35.0234V23.8H36.5434L45.2234 34.9V23.82H47.0234V38H45.3834L36.8234 27.12ZM61.6541 36.4V38H52.0141V23.8H61.4741V25.4H53.8141V30H60.4741V31.5H53.8141V36.4H61.6541ZM74.0634 26.78C73.9034 26.5933 73.6901 26.4133 73.4234 26.24C73.1568 26.0667 72.8568 25.9133 72.5234 25.78C72.1901 25.6333 71.8234 25.52 71.4234 25.44C71.0368 25.3467 70.6301 25.3 70.2034 25.3C69.1101 25.3 68.3034 25.5067 67.7834 25.92C67.2634 26.3333 67.0034 26.9 67.0034 27.62C67.0034 28.1267 67.1368 28.5267 67.4034 28.82C67.6701 29.1133 68.0768 29.3533 68.6234 29.54C69.1834 29.7267 69.8901 29.92 70.7434 30.12C71.7301 30.3333 72.5834 30.5933 73.3034 30.9C74.0234 31.2067 74.5768 31.62 74.9634 32.14C75.3501 32.6467 75.5434 33.3267 75.5434 34.18C75.5434 34.86 75.4101 35.4533 75.1434 35.96C74.8901 36.4533 74.5301 36.8667 74.0634 37.2C73.5968 37.52 73.0501 37.76 72.4234 37.92C71.7968 38.0667 71.1168 38.14 70.3834 38.14C69.6634 38.14 68.9568 38.0667 68.2634 37.92C67.5834 37.76 66.9368 37.5333 66.3234 37.24C65.7101 36.9467 65.1368 36.58 64.6034 36.14L65.4634 34.62C65.6768 34.8467 65.9501 35.0733 66.2834 35.3C66.6301 35.5133 67.0168 35.7133 67.4434 35.9C67.8834 36.0867 68.3568 36.24 68.8634 36.36C69.3701 36.4667 69.8901 36.52 70.4234 36.52C71.4368 36.52 72.2234 36.34 72.7834 35.98C73.3434 35.6067 73.6234 35.0667 73.6234 34.36C73.6234 33.8267 73.4634 33.4 73.1434 33.08C72.8368 32.76 72.3768 32.4933 71.7634 32.28C71.1501 32.0667 70.4034 31.8533 69.5234 31.64C68.5634 31.4 67.7568 31.14 67.1034 30.86C66.4501 30.5667 65.9568 30.1867 65.6234 29.72C65.3034 29.2533 65.1434 28.6467 65.1434 27.9C65.1434 26.9933 65.3634 26.2267 65.8034 25.6C66.2434 24.9733 66.8501 24.5 67.6234 24.18C68.3968 23.86 69.2701 23.7 70.2434 23.7C70.8834 23.7 71.4768 23.7667 72.0234 23.9C72.5834 24.0333 73.1034 24.22 73.5834 24.46C74.0634 24.7 74.5034 24.9867 74.9034 25.32L74.0634 26.78ZM87.8509 26.78C87.6909 26.5933 87.4776 26.4133 87.2109 26.24C86.9443 26.0667 86.6443 25.9133 86.3109 25.78C85.9776 25.6333 85.6109 25.52 85.2109 25.44C84.8243 25.3467 84.4176 25.3 83.9909 25.3C82.8976 25.3 82.0909 25.5067 81.5709 25.92C81.0509 26.3333 80.7909 26.9 80.7909 27.62C80.7909 28.1267 80.9243 28.5267 81.1909 28.82C81.4576 29.1133 81.8643 29.3533 82.4109 29.54C82.9709 29.7267 83.6776 29.92 84.5309 30.12C85.5176 30.3333 86.3709 30.5933 87.0909 30.9C87.8109 31.2067 88.3643 31.62 88.7509 32.14C89.1376 32.6467 89.3309 33.3267 89.3309 34.18C89.3309 34.86 89.1976 35.4533 88.9309 35.96C88.6776 36.4533 88.3176 36.8667 87.8509 37.2C87.3843 37.52 86.8376 37.76 86.2109 37.92C85.5843 38.0667 84.9043 38.14 84.1709 38.14C83.4509 38.14 82.7443 38.0667 82.0509 37.92C81.3709 37.76 80.7243 37.5333 80.1109 37.24C79.4976 36.9467 78.9243 36.58 78.3909 36.14L79.2509 34.62C79.4643 34.8467 79.7376 35.0733 80.0709 35.3C80.4176 35.5133 80.8043 35.7133 81.2309 35.9C81.6709 36.0867 82.1443 36.24 82.6509 36.36C83.1576 36.4667 83.6776 36.52 84.2109 36.52C85.2243 36.52 86.0109 36.34 86.5709 35.98C87.1309 35.6067 87.4109 35.0667 87.4109 34.36C87.4109 33.8267 87.2509 33.4 86.9309 33.08C86.6243 32.76 86.1643 32.4933 85.5509 32.28C84.9376 32.0667 84.1909 31.8533 83.3109 31.64C82.3509 31.4 81.5443 31.14 80.8909 30.86C80.2376 30.5667 79.7443 30.1867 79.4109 29.72C79.0909 29.2533 78.9309 28.6467 78.9309 27.9C78.9309 26.9933 79.1509 26.2267 79.5909 25.6C80.0309 24.9733 80.6376 24.5 81.4109 24.18C82.1843 23.86 83.0576 23.7 84.0309 23.7C84.6709 23.7 85.2643 23.7667 85.8109 23.9C86.3709 24.0333 86.8909 24.22 87.3709 24.46C87.8509 24.7 88.2909 24.9867 88.6909 25.32L87.8509 26.78ZM105.657 38.1C104.724 38.1 103.85 37.9 103.037 37.5C102.237 37.0867 101.537 36.54 100.937 35.86C100.337 35.1667 99.8704 34.3933 99.537 33.54C99.2037 32.6733 99.037 31.78 99.037 30.86C99.037 29.9 99.2037 28.9933 99.537 28.14C99.8704 27.2733 100.33 26.5067 100.917 25.84C101.517 25.1733 102.217 24.6533 103.017 24.28C103.83 23.8933 104.71 23.7 105.657 23.7C107.03 23.7 108.164 23.9867 109.057 24.56C109.95 25.1333 110.624 25.88 111.077 26.8L109.697 27.76C109.284 26.9333 108.717 26.32 107.997 25.92C107.277 25.52 106.484 25.32 105.617 25.32C104.897 25.32 104.244 25.4733 103.657 25.78C103.07 26.0867 102.564 26.5067 102.137 27.04C101.724 27.56 101.404 28.1533 101.177 28.82C100.964 29.4867 100.857 30.18 100.857 30.9C100.857 31.66 100.977 32.38 101.217 33.06C101.47 33.7267 101.824 34.32 102.277 34.84C102.73 35.3467 103.257 35.7467 103.857 36.04C104.457 36.3333 105.104 36.48 105.797 36.48C106.61 36.48 107.384 36.2733 108.117 35.86C108.85 35.4467 109.544 34.8133 110.197 33.96V35.82C108.917 37.34 107.404 38.1 105.657 38.1ZM109.977 32.28H106.917V30.92H111.497V38H109.977V32.28ZM115.671 23.8L119.971 31.2L124.311 23.8H126.271L120.871 32.82V38H119.071V32.78L113.691 23.8H115.671ZM142.117 38V27.16L137.437 35.5H136.337L131.637 27.16V38H129.837V23.8H131.737L136.877 33.02L142.037 23.8H143.917V38H142.117Z" fill="#9CA3AF"/>
</svg>
